<svg width="28" height="28" viewBox="0 0 28 28" fill="none" xmlns="http://www.w3.org/2000/svg">
<path d="M11.1386 17.675L21.0261 7.7875C21.2595 7.55417 21.5317 7.4375 21.8428 7.4375C22.1539 7.4375 22.4261 7.55417 22.6595 7.7875C22.8928 8.02083 23.0095 8.29811 23.0095 8.61933C23.0095 8.94056 22.8928 9.21744 22.6595 9.45L11.9553 20.1833C11.722 20.4167 11.4497 20.5333 11.1386 20.5333C10.8275 20.5333 10.5553 20.4167 10.322 20.1833L5.30529 15.1667C5.07196 14.9333 4.95996 14.6564 4.96929 14.336C4.97862 14.0156 5.10034 13.7383 5.33445 13.5042C5.56857 13.2701 5.84584 13.1534 6.16629 13.1542C6.48673 13.1549 6.76362 13.2716 6.99695 13.5042L11.1386 17.675Z" fill="#5C0E15"/>
</svg>
