<svg width="1445" height="167" viewBox="0 0 1445 167" fill="none" xmlns="http://www.w3.org/2000/svg">
<path fill-rule="evenodd" clip-rule="evenodd" d="M0.00693512 167L60.215 160.042C120.423 153.083 240.839 139.167 361.255 118.292C481.671 97.4167 602.087 69.5833 722.503 83.5C842.92 97.4167 963.336 153.083 1083.75 160.042C1204.17 167 1324.58 125.25 1384.79 104.375L1445 83.5V0H1384.79C1324.58 0 1204.17 0 1083.75 0C963.336 0 842.92 0 722.503 0C602.087 0 481.671 0 361.255 0C240.839 0 120.423 0 60.215 0H0.00693512V167Z" fill="#FCFCFC"/>
</svg>
